<?xml version="1.0" encoding="utf-8"?>
<svg viewBox="136.184 84.695 167.127 46.752" xmlns="http://www.w3.org/2000/svg">
  <path class="a" d="M 143.781 88.521 C 143.904 89.634 143.506 90.742 142.701 91.521 C 141.925 92.096 140.977 92.392 140.011 92.361 C 139.038 92.396 138.083 92.1 137.301 91.521 C 136.491 90.744 136.088 89.636 136.211 88.521 C 136.073 87.406 136.474 86.292 137.291 85.521 C 138.07 84.937 139.029 84.647 140.001 84.701 C 140.971 84.661 141.923 84.966 142.691 85.561 C 143.506 86.333 143.907 87.446 143.771 88.561 M 136.851 98.641 L 143.401 98.641 L 143.401 130.031 L 136.851 130.031 L 136.851 98.641 Z M 180.911 127.361 C 178.531 129.231 174.551 130.471 169.991 130.471 C 165.111 130.471 160.991 129.521 157.401 125.761 L 157.401 130.031 L 150.851 130.031 L 150.851 85.261 L 157.401 85.261 L 157.401 98.471 C 161.001 94.781 165.111 93.901 169.991 93.901 C 174.551 93.901 178.531 95.141 180.911 97.031 C 185.411 100.651 186.371 106.601 186.371 112.181 C 186.371 117.761 185.411 123.701 180.911 127.361 M 168.641 98.571 C 158.941 98.571 157.401 105.221 157.401 112.191 C 157.401 119.161 158.941 125.841 168.641 125.841 C 178.341 125.841 179.821 119.161 179.821 112.191 C 179.821 105.221 178.341 98.571 168.641 98.571 M 210.851 130.471 C 199.611 130.471 191.061 124.381 191.061 112.191 C 191.061 100.001 199.611 93.911 210.851 93.911 C 217.021 93.911 220.931 95.221 225.561 99.201 L 221.131 102.551 C 218.429 99.815 214.69 98.361 210.851 98.551 C 206.481 98.551 202.851 99.911 200.511 102.601 C 198.381 104.931 197.611 107.701 197.611 112.191 C 197.611 116.681 198.381 119.451 200.501 121.781 C 202.881 124.451 206.501 125.831 210.841 125.831 C 215.181 125.831 217.781 124.701 221.121 121.781 L 225.551 125.181 C 220.931 129.181 217.011 130.471 210.841 130.471 M 285.211 130.471 C 277.691 130.471 271.781 129.091 266.901 125.321 L 271.211 121.851 C 274.741 124.851 279.561 125.981 285.091 125.981 C 292.411 125.981 296.971 123.871 296.971 119.671 C 296.971 116.541 294.721 114.811 289.521 114.451 L 282.211 113.941 C 273.471 113.361 268.851 110.251 268.851 104.371 C 268.851 97.841 275.721 93.911 285.291 93.911 C 291.651 93.911 297.371 95.151 301.351 97.771 L 297.051 101.171 C 293.901 99.171 289.791 98.331 285.171 98.331 C 278.681 98.331 275.171 100.591 275.171 104.231 C 275.171 107.231 277.351 109.091 282.941 109.451 L 290.141 109.961 C 297.981 110.521 303.311 112.961 303.311 119.601 C 303.311 126.491 295.921 130.481 285.131 130.481" style="fill: rgb(248, 248, 248);"/>
  <path d="M 259.671 99.701 L 259.671 104.471 L 255.011 104.471 C 257.581 107.131 259.931 110.221 259.471 113.991 C 259.076 116.957 257.662 119.693 255.471 121.731 C 253.466 123.894 250.773 125.297 247.851 125.701 C 243.611 126.191 240.141 123.271 237.311 120.411 C 234.481 117.551 231.531 114.101 231.981 109.871 C 232.403 106.951 233.782 104.253 235.901 102.201 C 237.979 100.048 240.711 98.641 243.671 98.201 C 246.411 97.901 248.811 99.091 250.951 100.751 L 255.811 100.751 L 255.811 96.131 C 252.651 93.641 249.151 92.131 244.701 92.551 C 240.054 93.185 235.768 95.399 232.561 98.821 C 229.137 102.016 226.916 106.292 226.271 110.931 C 225.691 116.851 228.651 121.101 232.631 125.061 C 236.611 129.021 240.791 131.961 246.701 131.371 C 251.35 130.731 255.637 128.51 258.841 125.081 C 262.265 121.885 264.486 117.609 265.131 112.971 C 265.671 107.481 263.131 103.451 259.671 99.731" fill="#dbb25d"/>
</svg>